<?xml version="1.0" encoding="utf-8"?>
<!-- Generator: Adobe Illustrator 23.0.3, SVG Export Plug-In . SVG Version: 6.00 Build 0)  -->
<svg version="1.1" id="Lag_1" xmlns="http://www.w3.org/2000/svg" xmlns:xlink="http://www.w3.org/1999/xlink" x="0px" y="0px"
	 viewBox="0 0 16 16" style="enable-background:new 0 0 16 16;" xml:space="preserve">
<style type="text/css">
	.st0{fill:#006666;}
	.st1{fill:#FFFFFF;}
</style>
<path class="st0" d="M15.71,16H0.29C0.13,16,0,15.87,0,15.71V0.29C0,0.13,0.13,0,0.29,0h15.43C15.87,0,16,0.13,16,0.29v15.43
	C16,15.87,15.87,16,15.71,16z"/>
<path class="st1" d="M8.12,8.22H1.69c-0.07,0-0.12-0.05-0.12-0.12V7.85c0-1.45,1.21-2.63,2.72-2.63c1.03,0,1.81,0.32,2.26,0.93
	c0.06-0.01,0.11-0.01,0.17-0.02c0.4-0.02,0.76,0.11,1.02,0.38c0.31,0.31,0.5,0.79,0.5,1.35V8.1C8.24,8.16,8.19,8.22,8.12,8.22z
	 M2.34,7.47h5.12C7.41,7.29,7.33,7.13,7.23,7.03C7.11,6.92,6.95,6.86,6.75,6.86l0,0c-0.09,0-0.17,0.02-0.26,0.04L6.2,6.99L6.05,6.73
	C5.76,6.21,5.17,5.95,4.28,5.95C3.32,5.95,2.52,6.61,2.34,7.47z"/>
<path class="st1" d="M9.75,9.45c0.77-0.32,1.47-0.95,1.47-2.16c0-0.87-0.39-1.49-0.66-1.83c-0.03-0.03-0.08-0.06-0.13-0.06H9.68
	c-0.11,0-0.17,0.14-0.08,0.22c0.31,0.26,0.73,0.78,0.73,1.64c0,1.83-1.76,2.01-1.98,2.03C8.09,9.28,7.84,9.28,7.61,9.28H5.82l0,0
	V8.71c0-0.07-0.05-0.12-0.12-0.12H5.14c-0.07,0-0.12,0.05-0.12,0.12v1.26c0,0.07,0.06,0.13,0.13,0.13h2.46
	c2.02,0.01,3.44,0.15,3.44,1.97c0,1.8-1.87,2.01-1.97,2.02c-0.01,0-0.66,0.08-1.62,0.08H5.82v-1.8c0-0.08-0.06-0.13-0.13-0.13H5.15
	c-0.08,0-0.13,0.06-0.13,0.13v2.43l0,0v0.05c0,0.07,0.06,0.13,0.13,0.13h2.31c1.01,0,1.69-0.09,1.71-0.09
	c0.93-0.09,2.68-0.79,2.68-2.82C11.85,10.37,10.89,9.7,9.75,9.45z"/>
<path class="st1" d="M10.58,1C9.31,1,8.18,1.6,7.5,2.6C7.34,2.56,7.18,2.54,7,2.54c-1.02,0-1.67,0.66-1.9,1.45
	C5.09,4.06,5.14,4.14,5.22,4.14c0.16,0.02,0.38,0.03,0.5,0.04c0.05,0,0.1-0.03,0.12-0.08c0.04-0.13,0.11-0.25,0.19-0.36
	c0.02-0.02,0.03-0.03,0.04-0.06c0.03-0.03,0.05-0.05,0.08-0.08C6.2,3.56,6.25,3.52,6.3,3.48c0.01,0,0.01-0.01,0.02-0.01
	c0.04-0.03,0.1-0.05,0.15-0.08c0.17-0.08,0.35-0.13,0.54-0.13c0.31,0,0.58,0.11,0.79,0.29l0,0l0.17-0.31
	c0.52-0.95,1.48-1.49,2.6-1.49c1.54,0,2.81,1.11,3,2.53h-5.1c-0.07,0-0.12,0.05-0.12,0.12v0.49c0,0.07,0.05,0.12,0.12,0.12h5.74
	c0.07,0,0.13-0.06,0.13-0.13V4.64C14.34,2.64,12.65,1,10.58,1z"/>
</svg>
