<?xml version="1.0" encoding="utf-8"?>
<!-- Generator: Adobe Illustrator 23.0.3, SVG Export Plug-In . SVG Version: 6.00 Build 0)  -->
<svg version="1.1" id="Layer_1" xmlns="http://www.w3.org/2000/svg" xmlns:xlink="http://www.w3.org/1999/xlink" x="0px" y="0px"
	 viewBox="0 0 1066.6 1192" style="enable-background:new 0 0 1066.6 1192;" xml:space="preserve">
<style type="text/css">
	.st0{display:none;}
	.st1{display:inline;}
	.st2{clip-path:url(#SVGID_2_);}
</style>
<g id="Lag_1" class="st0">
	<g class="st1">
		<g>
			<g>
				<defs>
					<rect id="SVGID_1_" x="-853.4" y="-3812" width="1924.6" height="5413"/>
				</defs>
				<clipPath id="SVGID_2_">
					<use xlink:href="#SVGID_1_"  style="overflow:visible;"/>
				</clipPath>
				<g transform="matrix(1 0 0 1 0 0)" class="st2">
					
						<image style="overflow:visible;enable-background:new    ;" width="1364" height="3834" xlink:href="AFFCCD13.jpeg"  transform="matrix(1.411 0 0 1.411 -853.35 -3810.3245)">
					</image>
				</g>
			</g>
		</g>
	</g>
</g>
<g id="Lag_2">
	<g>
		<path d="M2.4,1192c-1.6-18.5-2.4-37.5-2.4-57c0-220.7,106.2-361.7,318.6-423.1C170.9,629,97.1,503.7,97.1,336.1
			C97.1,199.2,139.5,87.5,224.3,1c68-1,842.3-1,842.3-1l-0.3,1192C1066.4,1192,146.2,1192.1,2.4,1192z"/>
	</g>
</g>
</svg>
