<?xml version="1.0" encoding="utf-8"?>
<!-- Generator: Adobe Illustrator 23.0.3, SVG Export Plug-In . SVG Version: 6.00 Build 0)  -->
<svg version="1.1" id="Lag_1" xmlns="http://www.w3.org/2000/svg" xmlns:xlink="http://www.w3.org/1999/xlink" x="0px" y="0px"
	 viewBox="0 0 425.2 251.25" style="enable-background:new 0 0 425.2 251.25;" xml:space="preserve">
<style type="text/css">
	.st0{fill:#020203;}
</style>
<path class="st0" d="M83.25,93.31H9.53c-0.77,0-1.39-0.62-1.39-1.39v-2.83c0-16.62,13.94-30.15,31.08-30.15
	c11.85,0,20.74,3.67,25.95,10.65c0.67-0.09,1.34-0.15,2.02-0.16c4.63-0.21,8.66,1.33,11.68,4.26c3.63,3.52,5.71,9.13,5.71,15.41
	v2.89C84.58,92.71,83.98,93.31,83.25,93.31z M17,84.87h58.66c-0.52-2.14-1.44-3.94-2.66-5.13c-1.38-1.34-3.21-1.95-5.55-1.89h0
	c-1.04,0.03-2.01,0.19-2.97,0.49l-3.28,1.03l-1.66-3.01c-3.29-5.97-10.13-8.99-20.31-8.99C28.23,67.37,19.05,74.91,17,84.87z"/>
<g>
	<path class="st0" d="M182.99,163.93c-5.28,5.28-12.03,7.92-20.24,7.92s-14.96-2.61-20.24-7.86c-5.28-5.24-7.92-12.21-7.92-20.92
		s2.67-15.62,8.03-20.75c5.35-5.13,12.08-7.69,20.18-7.69c8.1,0,14.81,2.58,20.13,7.74c5.31,5.17,7.97,12.06,7.97,20.69
		C190.91,151.7,188.27,158.65,182.99,163.93z M144.09,143.12c0,6.18,1.81,11.19,5.43,15.04c3.62,3.84,8.05,5.76,13.29,5.76
		c5.24,0,9.67-1.92,13.29-5.76c3.62-3.85,5.43-8.86,5.43-15.04c0-6.18-1.83-11.16-5.49-14.93c-3.66-3.77-8.05-5.65-13.17-5.65
		c-5.13,0-9.54,1.89-13.23,5.65C145.94,131.97,144.09,136.94,144.09,143.12z"/>
	<path class="st0" d="M259.43,171.05h-10.74c-3.24,0-4.86-1.58-4.86-4.75v-29.74c0-4.37-1.06-7.76-3.16-10.18
		c-2.11-2.41-5.2-3.62-9.27-3.62c-5.8,0-10.33,2.38-13.57,7.12c-0.38,0.45-0.87,1.28-1.47,2.49v31.1h5.99
		c0.98,0,1.47,0.45,1.47,1.36v4.86c0,0.91-0.49,1.36-1.47,1.36h-21.6c-0.98,0-1.47-0.45-1.47-1.36v-4.86c0-0.91,0.49-1.36,1.47-1.36
		h6.22v-40.48h-6.22c-0.98,0-1.47-0.45-1.47-1.36v-4.86c0-0.91,0.49-1.36,1.47-1.36h13.23c0.98,0,1.47,0.45,1.47,1.36l-0.23,7.69
		h0.34c3.92-6.56,9.99-9.84,18.21-9.84c6.03,0,10.74,1.77,14.13,5.31c3.39,3.54,5.12,8.33,5.2,14.36v29.17h6.33
		c0.98,0,1.47,0.45,1.47,1.36v4.86C260.9,170.6,260.41,171.05,259.43,171.05z"/>
	<path class="st0" d="M318.12,171.05h-47.15c-0.98,0-1.47-0.45-1.47-1.36v-4.64c0-1.43,0.57-2.71,1.7-3.84l36.63-38.22h-30.64v8.71
		c0,0.91-0.45,1.36-1.36,1.36h-4.86c-0.98,0-1.47-0.45-1.47-1.36v-14.93c0-0.91,0.49-1.36,1.47-1.36h47.15
		c0.98,0,1.47,0.45,1.47,1.36v3.96c0,1.36-0.6,2.57-1.81,3.62l-37.09,39.13h31.1v-8.93c0-0.91,0.49-1.36,1.47-1.36h4.86
		c0.98,0,1.47,0.45,1.47,1.36v15.15C319.59,170.6,319.1,171.05,318.12,171.05z"/>
	<path class="st0" d="M383.7,171.05h-9.84c-3.24,0-4.86-1.58-4.86-4.75v-5.77h-0.23c-5.5,7.61-12.85,11.42-22.05,11.42
		c-5.43,0-9.88-1.41-13.34-4.24c-3.47-2.83-5.2-6.65-5.2-11.48c0-6.18,2.69-10.72,8.08-13.63c5.39-2.9,12.8-4.36,22.22-4.36h9.5
		v-1.36c0-9.42-4.9-14.13-14.7-14.13c-4.6,0-7.92,0.43-9.95,1.3c-2.03,0.87-3.49,1.57-4.35,2.09c-0.87,0.53-1.53,0.95-1.98,1.25
		c-1.13,0.9-1.96,0.98-2.49,0.23l-3.17-3.96c-0.53-0.61-0.45-1.21,0.23-1.81c1.28-1.66,3.92-3.28,7.92-4.86
		c3.99-1.58,8.71-2.37,14.13-2.37c15.83,0,23.75,7.54,23.75,22.62v26.23h6.33c0.9,0,1.36,0.45,1.36,1.36v4.86
		C385.06,170.6,384.61,171.05,383.7,171.05z M367.99,145.04h-8.93c-4.37,0-7.99,0.23-10.85,0.68c-2.87,0.45-5.3,1.43-7.29,2.94
		c-2,1.51-3,3.58-3,6.22c0,2.64,1.07,4.81,3.22,6.5c2.15,1.7,4.96,2.54,8.42,2.54c7.31,0,13.46-3.24,18.43-9.72V145.04z"/>
	<path class="st0" d="M416.83,171.05h-21.6c-0.98,0-1.47-0.45-1.47-1.36v-4.86c0-0.91,0.49-1.36,1.47-1.36h6.22v-40.48h-6.22
		c-0.98,0-1.47-0.45-1.47-1.36v-4.86c0-0.91,0.49-1.36,1.47-1.36h14.25c0.91,0,1.36,0.45,1.36,1.36v46.7h5.99
		c0.98,0,1.47,0.45,1.47,1.36v4.86C418.3,170.6,417.81,171.05,416.83,171.05z M410.44,98.68c1.24,1.29,1.86,2.79,1.86,4.52
		c0,1.74-0.62,3.21-1.86,4.41c-1.25,1.21-2.73,1.81-4.47,1.81c-1.73,0-3.22-0.6-4.47-1.81c-1.24-1.21-1.87-2.68-1.87-4.41
		c0-1.73,0.62-3.24,1.87-4.52c1.24-1.28,2.73-1.92,4.47-1.92C407.71,96.76,409.2,97.4,410.44,98.68z"/>
</g>
<path class="st0" d="M101.92,107.43c8.76-3.71,16.76-10.96,16.76-24.72c0-9.97-4.5-17.06-7.6-20.9c-0.36-0.45-0.9-0.69-1.48-0.69
	h-8.46c-1.3,0-1.92,1.62-0.93,2.46c3.5,2.98,8.3,8.88,8.3,18.86c0,20.91-20.15,23.04-22.7,23.2c-2.95-0.09-5.81-0.1-8.49-0.11
	l-20.41-0.01c-0.01,0-0.01-0.01-0.01-0.01l0-6.57c0-0.78-0.63-1.4-1.4-1.4h-6.47c-0.77,0-1.4,0.63-1.4,1.4l0,14.39
	c0,0.81,0.66,1.47,1.47,1.47l28.21,0.01c23.07,0.05,39.4,1.71,39.4,22.63c0,20.6-21.46,23.01-22.5,23.12
	c-0.07,0.01-7.6,0.95-18.61,0.95H56.9v-20.63c0-0.85-0.69-1.54-1.54-1.54h-6.19c-0.85,0-1.54,0.69-1.54,1.54v27.82h0v0.57
	c0,0.84,0.68,1.51,1.51,1.51h26.45c11.64,0,19.46-0.98,19.63-1.01c10.64-1,30.76-9.06,30.76-32.33
	C125.98,117.92,114.93,110.37,101.92,107.43z"/>
<path class="st0" d="M111.39,10.68c-14.58,0-27.51,6.78-35.28,18.31c-1.77-0.49-3.67-0.73-5.71-0.73c-11.76,0-19.1,7.55-21.68,16.62
	c-0.24,0.83,0.37,1.68,1.23,1.76c1.8,0.17,4.3,0.38,5.72,0.49c0.65,0.05,1.2-0.36,1.42-0.98c0.52-1.48,1.28-2.86,2.23-4.08
	c0.17-0.23,0.36-0.44,0.55-0.67c0.28-0.32,0.54-0.64,0.84-0.93c0.52-0.52,1.09-0.98,1.71-1.41c0.07-0.05,0.12-0.1,0.19-0.14
	c0.52-0.35,1.09-0.64,1.68-0.91c1.88-0.92,3.97-1.49,6.21-1.49c3.45,0,6.58,1.28,9.04,3.34l0.02,0.01l2.01-3.63
	c6.01-10.89,16.89-17.13,29.84-17.13c17.61,0,32.19,12.7,34.35,29.07H87.16c-0.79,0-1.43,0.64-1.43,1.43v5.58
	c0,0.79,0.64,1.43,1.43,1.43h67.29v-4.22C154.45,29.39,135.13,10.68,111.39,10.68z"/>
<g>
	<path class="st0" d="M262.15,241.57h-17.92c-0.62,0-0.93-0.31-0.93-0.93v-3.96c0-0.62,0.31-0.93,0.93-0.93h5.2v-38.63h-0.08
		l-14.74,36.62c-0.62,1.55-1.76,2.33-3.41,2.33s-2.79-0.77-3.41-2.33l-14.74-36.62h-0.16v38.63h5.2c0.67,0,1.01,0.31,1.01,0.93v3.96
		c0,0.62-0.34,0.93-1.01,0.93h-17.84c-0.67,0-1.01-0.31-1.01-0.93v-3.96c0-0.62,0.34-0.93,1.01-0.93h5.9v-44.07h-5.9
		c-0.67,0-1.01-0.31-1.01-0.93v-3.96c0-0.62,0.34-0.93,1.01-0.93h11.95c1.76,0,2.97,0.88,3.65,2.64l11.56,27.93l3.65,9.78h0.31
		c1.45-4.04,2.64-7.24,3.57-9.62l11.64-28.09c0.67-1.76,1.91-2.64,3.73-2.64h11.87c0.62,0,0.93,0.31,0.93,0.93v3.96
		c0,0.62-0.31,0.93-0.93,0.93h-5.97v44.07h5.97c0.62,0,0.93,0.31,0.93,0.93v3.96C263.08,241.26,262.77,241.57,262.15,241.57z"/>
	<path class="st0" d="M301.87,223.26h-27.93c0.21,4.29,1.56,7.6,4.07,9.93c2.51,2.33,5.34,3.49,8.5,3.49c3.15,0,5.86-0.67,8.11-2.01
		c2.25-1.35,3.76-2.67,4.54-3.96c0.41-0.52,0.88-0.59,1.4-0.23l2.09,2.1c0.31,0.31,0.47,0.58,0.47,0.81c0,0.23-0.12,0.53-0.35,0.89
		c-0.23,0.36-0.71,0.93-1.44,1.71c-0.72,0.78-1.75,1.66-3.06,2.64c-1.32,0.98-3.03,1.81-5.12,2.48c-2.09,0.67-4.33,1.01-6.71,1.01
		c-5.43,0-9.97-1.78-13.62-5.35c-3.65-3.57-5.47-8.37-5.47-14.39s1.81-10.78,5.43-14.27c3.62-3.49,8.06-5.24,13.31-5.24
		c5.25,0,9.37,1.69,12.37,5.08c3,3.39,4.5,7.95,4.5,13.7c0,0.21,0,0.41,0,0.62C302.96,222.93,302.59,223.26,301.87,223.26z
		 M293.49,210.85c-1.86-1.91-4.35-2.87-7.45-2.87c-3.1,0-5.77,0.88-7.99,2.64c-2.22,1.76-3.54,4.4-3.96,7.91h22.42
		C296.36,215.33,295.35,212.76,293.49,210.85z"/>
	<path class="st0" d="M349.74,241.57h-6.75c-1.19,0-2.06-0.24-2.6-0.74c-0.54-0.49-0.82-1.33-0.82-2.52v-4.35h-0.08
		c-0.83,2.17-2.38,4.07-4.66,5.7c-2.28,1.63-5.04,2.44-8.3,2.44c-5.17,0-9.38-1.81-12.61-5.43c-3.23-3.62-4.85-8.36-4.85-14.24
		c0-5.87,1.62-10.6,4.85-14.2c3.23-3.59,7.46-5.39,12.69-5.39c3.21,0,5.87,0.74,7.99,2.21c2.12,1.47,3.65,3.27,4.58,5.39h0.08
		c-0.05-1.03-0.08-1.89-0.08-2.56v-16.84h-4.35c-0.67,0-1.01-0.31-1.01-0.93v-3.34c0-0.62,0.34-0.93,1.01-0.93h9.62
		c0.62,0,0.93,0.31,0.93,0.93v49.57h4.34c0.62,0,0.93,0.31,0.93,0.93v3.34C350.67,241.26,350.36,241.57,349.74,241.57z
		 M315.45,222.33c0,4.29,1.13,7.76,3.38,10.4c2.25,2.64,5.11,3.96,8.57,3.96c3.46,0,6.31-1.3,8.53-3.92
		c2.22-2.61,3.34-6.09,3.34-10.43s-1.14-7.77-3.41-10.28c-2.28-2.51-5.09-3.76-8.46-3.76c-3.36,0-6.19,1.27-8.5,3.8
		C316.6,214.63,315.45,218.04,315.45,222.33z"/>
	<path class="st0" d="M372.39,241.57h-14.82c-0.67,0-1.01-0.31-1.01-0.93v-3.34c0-0.62,0.34-0.93,1.01-0.93h4.27V208.6h-4.27
		c-0.67,0-1.01-0.31-1.01-0.93v-3.34c0-0.62,0.34-0.93,1.01-0.93h9.78c0.62,0,0.93,0.31,0.93,0.93v32.04h4.11
		c0.67,0,1.01,0.31,1.01,0.93v3.34C373.4,241.26,373.06,241.57,372.39,241.57z M368.01,191.92c0.85,0.88,1.28,1.91,1.28,3.1
		c0,1.19-0.43,2.2-1.28,3.03c-0.85,0.83-1.87,1.24-3.06,1.24c-1.19,0-2.21-0.41-3.06-1.24c-0.85-0.83-1.28-1.84-1.28-3.03
		c0-1.19,0.43-2.22,1.28-3.1c0.85-0.88,1.87-1.32,3.06-1.32C366.13,190.6,367.16,191.04,368.01,191.92z"/>
	<path class="st0" d="M417.39,241.57h-6.75c-2.22,0-3.34-1.09-3.34-3.26v-3.96h-0.16c-3.78,5.22-8.82,7.83-15.13,7.83
		c-3.72,0-6.78-0.97-9.15-2.91c-2.38-1.94-3.57-4.56-3.57-7.87c0-4.24,1.85-7.36,5.55-9.35c3.7-1.99,8.78-2.99,15.25-2.99h6.52
		v-0.93c0-6.46-3.36-9.7-10.09-9.7c-3.16,0-5.43,0.3-6.83,0.89c-1.4,0.6-2.39,1.07-2.99,1.44c-0.6,0.36-1.05,0.65-1.36,0.85
		c-0.78,0.62-1.35,0.67-1.71,0.15l-2.17-2.71c-0.36-0.41-0.31-0.83,0.16-1.24c0.88-1.14,2.69-2.25,5.43-3.34
		c2.74-1.09,5.97-1.63,9.7-1.63c10.86,0,16.29,5.17,16.29,15.52v18h4.35c0.62,0,0.93,0.31,0.93,0.93v3.34
		C418.32,241.26,418.01,241.57,417.39,241.57z M406.61,223.73h-6.13c-3,0-5.48,0.15-7.45,0.46c-1.97,0.31-3.63,0.98-5,2.02
		c-1.37,1.03-2.06,2.46-2.06,4.27c0,1.81,0.74,3.3,2.21,4.46c1.47,1.16,3.4,1.74,5.78,1.74c5.02,0,9.23-2.22,12.65-6.67V223.73z"/>
</g>
</svg>
